# xmcd
#
# Track frame offsets:
#	180
#	13420
#	25524
#	40515
#	52072
#	65273
#	77536
#	91018
#	103960
#	117965
#	127973
#	139035
#
# Disc length: 2064 seconds
#
# Revision: 0
# Processed by: cddbd v1.4PL0 Copyright (c) Steve Scherf et al.
# Submitted via: EasyCDDAExtractor 4.6.0.1
#
DISCID=92080e0c
DTITLE=Banda Maguey - Mil Gracias
DYEAR=1999
DGENRE=Latin
TTITLE0=Dos Gotas de Agua
TTITLE1=Niña Hermosa
TTITLE2=Mil Gracias
TTITLE3=Que Te Vas a Ir
TTITLE4=Volarás
TTITLE5=Los Hombres No Deben Llorar
TTITLE6=Perro Esponja
TTITLE7=Maldito Destino
TTITLE8=Me Extrañarás
TTITLE9=La Chica del Aparador
TTITLE10=El Grand Marquis
TTITLE11=Esta Navidad
EXTD=
EXTT0=
EXTT1=
EXTT2=
EXTT3=
EXTT4=
EXTT5=
EXTT6=
EXTT7=
EXTT8=
EXTT9=
EXTT10=
EXTT11=
PLAYORDER=
